<?xml version="1.0" encoding="utf-8"?>
<!-- Generator: Adobe Illustrator 23.0.1, SVG Export Plug-In . SVG Version: 6.00 Build 0)  -->
<svg version="1.1" id="Layer_1" xmlns="http://www.w3.org/2000/svg" xmlns:xlink="http://www.w3.org/1999/xlink" x="0px" y="0px"
	 viewBox="0 0 500 273" style="enable-background:new 0 0 500 273;" xml:space="preserve">
<style type="text/css">
	.st0{fill:url(#SVGID_1_);}
	.st1{fill:#FFFFFF;}
</style>
<g>
	<linearGradient id="SVGID_1_" gradientUnits="userSpaceOnUse" x1="3.3411" y1="136.5" x2="496.6589" y2="136.5">
		<stop  offset="0" style="stop-color:#FD267D"/>
		<stop  offset="1" style="stop-color:#FF7854"/>
	</linearGradient>
	<path class="st0" d="M250,3.7c47.3,0,94.7-0.1,142,0.1c14.7,0.1,28.8,3.7,42.2,10c11.7,5.5,22.1,12.7,31.2,21.9
		c13.7,14,23.1,30.4,27.9,49.5c2.9,11.3,4,22.8,3.1,34.3c-1,13.2-4.2,25.9-10,38c-6.1,12.9-14.3,24.2-24.8,33.8
		c-10.4,9.6-22.3,16.9-35.6,21.7c-12.2,4.4-24.7,6.7-37.7,6.6c-28.2-0.2-56.4,0-84.7-0.1c-2.3,0-3.9,0.7-5.5,2.3
		c-15.2,15.4-30.6,30.7-45.9,46c-2.1,2.1-2.1,2.1-4.2,0.1c-9.8-9.2-19.5-18.4-29.3-27.6c-6.7-6.3-13.4-12.5-20-18.8
		c-1.5-1.4-2.9-2-5-2c-27.9,0.1-55.9,0-83.8,0c-17.9,0-34.6-4.6-50.3-13.1c-18.4-10-32.6-24.3-42.9-42.6c-4.9-8.8-8.4-18.1-10.7-28
		c-3-12.7-3.4-25.5-1.9-38.2c2.1-17,8.1-32.6,17.9-46.8c9.4-13.7,21.2-24.7,35.6-32.9C67.8,12.1,78.6,8,90.1,5.7
		c8.2-1.6,16.4-2.1,24.7-2.1C159.9,3.7,204.9,3.7,250,3.7C250,3.7,250,3.7,250,3.7z"/>
	<g>
		<path class="st1" d="M166.1,79.8h43.5v11.2h-30.4v13.4H209v11.2h-29.8v25.6h-13.1V79.8z"/>
		<path class="st1" d="M245.3,136.7c-3,3.6-8.3,5.7-14.1,5.7c-7.1,0-15.5-4.8-15.5-14.8c0-10.4,8.4-14.2,15.5-14.2
			c5.9,0,11.2,1.8,14.1,5.4v-6.2c0-4.5-3.9-7.5-9.8-7.5c-4.8,0-9.2,1.8-13,5.3l-4.4-7.8c5.4-4.8,12.4-7,19.5-7
			c10.1,0,19.5,4.1,19.5,16.9v28.8h-11.7V136.7z M245.3,125.1c-1.9-2.6-5.6-3.9-9.4-3.9c-4.6,0-8.4,2.5-8.4,6.7
			c0,4.1,3.8,6.5,8.4,6.5c3.8,0,7.5-1.3,9.4-3.9V125.1z"/>
		<path class="st1" d="M289.3,95.7c9.1,0,14.7,4,17.6,8.1l-7.7,7.1c-2.1-3-5.3-4.8-9.4-4.8c-7.1,0-12.1,5.2-12.1,12.9
			c0,7.7,5,13,12.1,13c4.1,0,7.3-1.8,9.4-4.8l7.7,7.1c-3,4.1-8.5,8.1-17.6,8.1c-13.7,0-23.6-9.7-23.6-23.4
			C265.7,105.4,275.6,95.7,289.3,95.7z"/>
		<path class="st1" d="M316.9,130.3V107h-7.4V96.8h7.4V84.6h11.8v12.2h9V107h-9v20.1c0,2.8,1.5,4.9,4.1,4.9c1.8,0,3.4-0.6,4.1-1.3
			l2.5,8.9c-1.8,1.6-4.9,2.9-9.8,2.9C321.3,142.4,316.9,138.2,316.9,130.3z"/>
	</g>
</g>
</svg>
