<?xml version="1.0" encoding="utf-8"?>
<!-- Generator: Adobe Illustrator 23.0.1, SVG Export Plug-In . SVG Version: 6.00 Build 0)  -->
<svg version="1.1" id="Layer_1" xmlns="http://www.w3.org/2000/svg" xmlns:xlink="http://www.w3.org/1999/xlink" x="0px" y="0px"
	 viewBox="0 0 566 220" style="enable-background:new 0 0 566 220;" xml:space="preserve">
<style type="text/css">
	.st0{fill:none;stroke:#20DBC2;stroke-width:14;stroke-miterlimit:10;enable-background:new    ;}
	.st1{enable-background:new    ;}
	.st2{fill:#21DBAD;}
</style>
<g>
	<path class="st0" d="M538.2,205.9H29c-8.2,0-14.8-6.6-14.8-14.8V27.1c0-8.2,6.6-14.8,14.8-14.8h509.2c8.2,0,14.8,6.6,14.8,14.8
		v163.9C553,199.3,546.4,205.9,538.2,205.9z"/>
	<g class="st1">
		<path class="st2" d="M98,56.5h74.4v19.2h-52v22.8h50.9v19.2h-50.9v43.8H98V56.5z"/>
		<path class="st2" d="M248.2,143.5h-46.9l-6.6,18.1H170l40.6-105.1h28l40.5,105.1h-24.4L248.2,143.5z M207.2,124.1H242l-17.3-48.2
			L207.2,124.1z"/>
		<path class="st2" d="M278.6,109.1c0-32.3,24.4-54.3,55.1-54.3c23.9,0,37.3,12.6,44.7,25.7l-19.2,9.5c-4.4-8.5-13.9-15.3-25.5-15.3
			c-18.3,0-32.1,14.7-32.1,34.5s13.9,34.5,32.1,34.5c11.7,0,21.1-6.6,25.5-15.3l19.2,9.3c-7.6,13.1-20.8,25.8-44.7,25.8
			C303,163.5,278.6,141.4,278.6,109.1z"/>
		<path class="st2" d="M416.1,76.2h-30.7V56.5h83.8v19.7h-30.6v85.4h-22.5V76.2z"/>
	</g>
</g>
</svg>
