<?xml version="1.0" encoding="utf-8"?>
<!-- Generator: Adobe Illustrator 23.0.1, SVG Export Plug-In . SVG Version: 6.00 Build 0)  -->
<svg version="1.1" id="Layer_1" xmlns="http://www.w3.org/2000/svg" xmlns:xlink="http://www.w3.org/1999/xlink" x="0px" y="0px"
	 viewBox="0 0 170 200" style="enable-background:new 0 0 170 200;" xml:space="preserve">
<style type="text/css">
	.st0{fill:url(#Flame_White_2_);}
</style>
<linearGradient id="Flame_White_2_" gradientUnits="userSpaceOnUse" x1="1.211" y1="100.11" x2="168.789" y2="100.11" gradientTransform="matrix(1 0 0 -1 0 200.11)">
	<stop  offset="0" style="stop-color:#FD267D"/>
	<stop  offset="1" style="stop-color:#FF7854"/>
</linearGradient>
<path id="Flame_White_1_" class="st0" d="M90.8,2c-0.8,0.1-1.4,0.8-1.3,1.6c5.1,30.9-1,64.6-38.4,77.8c-0.2,0-0.4,0-0.7-0.1
	c-6.6-8.7-8.3-23.7-8.8-29.6c0-0.8-0.7-1.4-1.5-1.4c-0.2,0-0.5,0.1-0.7,0.2C19.5,62.3,1,89.5,1.2,115.8
	c0.4,45.1,31.6,82.7,84.5,82.2c45.5,0.4,82.7-36.2,83-81.7c0-0.7,0-1.4,0-2C168.3,57,127.6,19.2,91.5,2.1C91.4,2,91.2,2,91.1,2
	L90.8,2z"/>
</svg>
