<?xml version="1.0" encoding="utf-8"?>
<!-- Generator: Adobe Illustrator 23.0.1, SVG Export Plug-In . SVG Version: 6.00 Build 0)  -->
<svg version="1.1" id="Layer_1" xmlns="http://www.w3.org/2000/svg" xmlns:xlink="http://www.w3.org/1999/xlink" x="0px" y="0px"
	 viewBox="0 0 500 500" style="enable-background:new 0 0 500 500;" xml:space="preserve">
<style type="text/css">
	.st0{fill:url(#SVGID_1_);}
	.st1{fill:#FFFFFF;}
</style>
<g>
	<linearGradient id="SVGID_1_" gradientUnits="userSpaceOnUse" x1="4.2727" y1="250" x2="495.7273" y2="250">
		<stop  offset="0" style="stop-color:#FD267D"/>
		<stop  offset="1" style="stop-color:#FF7854"/>
	</linearGradient>
	<circle class="st0" cx="250" cy="250" r="245.7"/>
	<g>
		<g>
			<path class="st1" d="M303.3,190.5c-6,0-10.9,4.9-10.9,10.9c0,6,4.9,10.9,10.9,10.9c6,0,10.9-4.9,10.9-10.9
				C314.1,195.3,309.3,190.5,303.3,190.5z"/>
			<path class="st1" d="M255,204.4c-25.1,0-45.6,20.5-45.6,45.6c0,25.1,20.5,45.6,45.6,45.6c25.1,0,45.6-20.5,45.6-45.6
				C300.6,224.9,280.1,204.4,255,204.4z M255,279.2c-16.1,0-29.2-13.1-29.2-29.2s13.1-29.2,29.2-29.2c16.1,0,29.2,13.1,29.2,29.2
				S271.1,279.2,255,279.2z"/>
			<path class="st1" d="M291.2,342.6h-73.9c-30.7,0-55.6-25-55.6-55.6V213c0-30.7,25-55.6,55.6-55.6h73.9c30.7,0,55.6,25,55.6,55.6
				V287C346.8,317.6,321.9,342.6,291.2,342.6z M217.3,174.8c-21.1,0-38.2,17.1-38.2,38.2V287c0,21.1,17.1,38.2,38.2,38.2h73.9
				c21.1,0,38.2-17.1,38.2-38.2V213c0-21.1-17.1-38.2-38.2-38.2H217.3z"/>
		</g>
	</g>
</g>
</svg>
