<?xml version="1.0" encoding="utf-8"?>
<!-- Generator: Adobe Illustrator 23.0.1, SVG Export Plug-In . SVG Version: 6.00 Build 0)  -->
<svg version="1.1" id="Layer_1" xmlns="http://www.w3.org/2000/svg" xmlns:xlink="http://www.w3.org/1999/xlink" x="0px" y="0px"
	 viewBox="0 0 566 220" style="enable-background:new 0 0 566 220;" xml:space="preserve">
<style type="text/css">
	.st0{fill:none;stroke:#2C2C2C;stroke-width:14;stroke-miterlimit:10;enable-background:new    ;}
	.st1{enable-background:new    ;}
	.st2{fill:#2C2C2C;}
</style>
<path class="st0" d="M537.6,206.8H28.4c-8.2,0-14.8-6.6-14.8-14.8V28c0-8.2,6.6-14.8,14.8-14.8h509.2c8.2,0,14.8,6.6,14.8,14.8V192
	C552.4,200.2,545.8,206.8,537.6,206.8z"/>
<g class="st1">
	<path class="st2" d="M163.1,86.9l-29.6,75.6h-9.8L94.1,86.9v75.6H71.7V57.5h31.3l25.5,65.5l25.5-65.5h31.5v105.1h-22.5V86.9z"/>
	<path class="st2" d="M235.7,119.5l-40.5-62.1h25.5l26.1,42.2l25.8-42.2h25.5l-40.2,62.1v43h-22.4V119.5z"/>
	<path class="st2" d="M332.3,77.2h-30.7V57.5h83.8v19.7h-30.6v85.4h-22.5V77.2z"/>
	<path class="st2" d="M471.7,118.4h-49.6v44.1h-22.4V57.5h22.4v41.3h49.6V57.5h22.5v105.1h-22.5V118.4z"/>
</g>
</svg>
