<?xml version="1.0" encoding="utf-8"?>
<!-- Generator: Adobe Illustrator 23.0.1, SVG Export Plug-In . SVG Version: 6.00 Build 0)  -->
<svg version="1.1" id="Layer_1" xmlns="http://www.w3.org/2000/svg" xmlns:xlink="http://www.w3.org/1999/xlink" x="0px" y="0px"
	 viewBox="0 0 500 273" style="enable-background:new 0 0 500 273;" xml:space="preserve">
<style type="text/css">
	.st0{fill:url(#SVGID_1_);}
	.st1{fill:#FFFFFF;}
</style>
<g>
	<linearGradient id="SVGID_1_" gradientUnits="userSpaceOnUse" x1="2.701" y1="136.5" x2="497.299" y2="136.5">
		<stop  offset="0" style="stop-color:#FD267D"/>
		<stop  offset="1" style="stop-color:#FF7854"/>
	</linearGradient>
	<path class="st0" d="M250,3.4c47.5,0,94.9-0.1,142.4,0.1c14.8,0.1,28.8,3.7,42.3,10c11.8,5.5,22.2,12.8,31.2,22
		c13.8,14,23.2,30.5,28,49.6c2.9,11.3,4,22.8,3.1,34.4c-1,13.3-4.3,26-10,38.1c-6.1,12.9-14.4,24.2-24.9,33.9
		c-10.5,9.6-22.3,16.9-35.7,21.8c-12.2,4.4-24.7,6.7-37.8,6.6c-28.3-0.2-56.6,0-84.9-0.1c-2.3,0-3.9,0.7-5.5,2.3
		c-15.3,15.4-30.6,30.8-46,46.1c-2.1,2.1-2.1,2.1-4.2,0.1c-9.8-9.2-19.6-18.4-29.4-27.7c-6.7-6.3-13.4-12.5-20.1-18.9
		c-1.5-1.4-2.9-2-5-2c-28,0.1-56,0-84,0c-18,0-34.7-4.6-50.4-13.1c-18.5-10-32.7-24.4-43-42.7c-4.9-8.8-8.4-18.2-10.7-28
		c-3-12.7-3.4-25.5-1.9-38.3c2.1-17,8.1-32.7,17.9-46.9c9.4-13.7,21.3-24.7,35.7-33c10.2-5.8,21-10,32.5-12.2
		c8.2-1.6,16.4-2.1,24.8-2.1C159.7,3.4,204.8,3.3,250,3.4C250,3.3,250,3.4,250,3.4z"/>
	<g>
		<path class="st1" d="M204.1,97l-17.4,44.4h-5.7L163.6,97v44.4h-13.1V79.7h18.4l15,38.5l15-38.5h18.5v61.7h-13.2V97z"/>
		<path class="st1" d="M233.1,149c3.1,0,5.1-0.8,6.2-3.2l1.7-3.8l-18.1-45.3h12.6l11.6,31.1l11.6-31.1h12.7l-21,52
			c-3.3,8.4-9.2,10.6-16.9,10.8c-1.4,0-4.3-0.3-5.8-0.6l1.8-10.5C230.4,148.7,232,149,233.1,149z"/>
		<path class="st1" d="M278.9,130.2v-23.3h-7.4V96.7h7.4V84.5h11.8v12.2h9.1v10.3h-9.1v20.2c0,2.8,1.5,4.9,4.1,4.9
			c1.8,0,3.4-0.6,4.1-1.3l2.5,8.9c-1.8,1.6-4.9,2.9-9.8,2.9C283.4,142.4,278.9,138.2,278.9,130.2z"/>
		<path class="st1" d="M338.1,114.2c0-6.2-3.2-8.1-8.3-8.1c-4.5,0-8.1,2.6-10.2,5.3v30h-11.7V79.7h11.7v22.8
			c2.9-3.4,8.4-6.9,15.7-6.9c9.8,0,14.5,5.4,14.5,14.1v31.7h-11.7V114.2z"/>
	</g>
</g>
</svg>
