<?xml version="1.0" encoding="utf-8"?>
<!-- Generator: Adobe Illustrator 23.0.1, SVG Export Plug-In . SVG Version: 6.00 Build 0)  -->
<svg version="1.1" id="Layer_1" xmlns="http://www.w3.org/2000/svg" xmlns:xlink="http://www.w3.org/1999/xlink" x="0px" y="0px"
	 viewBox="0 0 500 126" style="enable-background:new 0 0 500 126;" xml:space="preserve">
<style type="text/css">
	.st0{fill:#0E8F6D;}
</style>
<g>
	<g>
		<path class="st0" d="M76.2,13.8c13.7,0,26.6,10,29.7,24.4c1.8,8.2,0.6,16-4,23.1c-0.8,1.3-0.7,2.1,0.4,3.1
			c2.1,1.9,4.4,3.7,5.7,6.3c1.2,2.5,0.4,5.2-1.9,7c-2.1,1.6-5.4,1.6-7.4-0.1C95,74.4,91.4,70.9,88,67.3c-2.5-2.7-2.2-6,0.8-9
			c2.7-2.8,4.5-6,5.3-9.7c2.2-9.8-5.2-20.7-15.2-22.3c-7.2-1.2-13.2,0.9-18.3,5.9C52.7,40,44.9,47.8,37,55.5
			c-1.8,1.8-3.7,3.5-5.5,5.3c-2.5,2.3-6.7,2.4-8.9,0.1c-2.3-2.4-2.2-6.1,0.4-8.7c8.3-8.2,16.5-16.5,25-24.6c3.3-3.2,6.4-6.6,10.4-9
			C63.4,15.5,68.8,13.8,76.2,13.8z"/>
		<path class="st0" d="M290.7,44.1c1.8-2.9,4.1-5,7.3-5.9c4.8-1.3,10.7,0,13.2,5.3c0.7,1.4,1,0.5,1.4-0.2c3.4-6.1,13.3-7.5,18.8-2.9
			c2.6,2.1,3.9,5,3.9,8.3c0.1,8.6,0,17.1,0.1,25.7c0,1.2-0.4,1.6-1.6,1.6c-2.2,0-4.4-0.1-6.7,0c-1.5,0.1-2-0.6-2-2.1
			c0-6.6,0-13.2,0-19.8c0-0.5,0-1,0-1.4c-0.1-4-1.7-5.9-5.3-6.1c-3.5-0.3-6.2,1.9-6.7,5.5c-0.5,2.9-0.2,5.9-0.2,8.9
			c-0.1,4.4-0.1,8.8,0,13.2c0,1.5-0.5,2-1.9,1.9c-2-0.1-3.9-0.1-5.9,0c-1.5,0.1-1.9-0.5-1.9-2c0.1-6.6,0-13.1,0-19.7
			c0-0.9-0.1-1.8-0.2-2.7c-0.5-3.4-2.1-4.9-5.4-5.1c-2.7-0.2-5.5,1.7-6.3,4.3c-0.3,1.1-0.4,2.2-0.4,3.3c0,6.5,0,13,0,19.5
			c0,2.2-0.1,2.3-2.2,2.3c-2.1,0-4.2,0-6.3,0c-1.1,0-1.7-0.3-1.7-1.5c0-11.5,0-22.9,0-34.4c0-1.1,0.4-1.6,1.6-1.6c2.3,0,4.5,0,6.8,0
			c1.1,0,1.5,0.5,1.5,1.5C290.6,41.4,290.7,42.7,290.7,44.1z"/>
		<path class="st0" d="M344.3,51.4c0-7.5,0-15,0-22.5c0-1.9,0.1-2,2.1-2c9.5,0,19,0,28.5,0c1.9,0,2,0.1,2,2.1c0,1.6,0,3.3,0,4.9
			c0,1.9-0.1,2-2.1,2c-6,0-11.9,0-17.9,0c-2.1,0-2.1,0-2.1,2.1c0,2.4,0,4.9,0,7.3c0,1.3,0.5,1.6,1.7,1.6c5.7,0,11.4,0,17.1,0
			c2,0,2.1,0.1,2.1,2.2c0,1.3,0,2.6,0,4c0,2.3-0.1,2.4-2.4,2.4c-5.4,0-10.9,0-16.3,0c-2.2,0-2.2,0-2.2,2.2c0,2.3,0,4.6,0,7
			c0,2.2,0,2.2,2.2,2.2c5.9,0,11.7,0,17.6,0c2.3,0,2.4,0.1,2.4,2.4c0,1.5,0,3.1,0,4.6c0,2-0.1,2.2-2.1,2.2c-8.2,0-16.4,0-24.6,0
			c-1.3,0-2.6-0.1-4,0c-1.5,0.1-2-0.6-2-2C344.3,66.5,344.3,58.9,344.3,51.4z"/>
		<path class="st0" d="M127.3,51.4c0-7.5,0-15,0-22.5c0-2.1,0.1-2.1,2.2-2.1c6.4,0,12.8,0,19.2,0c9.2,0,16,6.9,16.2,16.2
			c0.1,4.3-0.8,8.2-3.4,11.6c-3.2,4.2-7.7,6-12.8,6.3c-3,0.1-6,0.1-9,0c-1.3,0-1.8,0.4-1.8,1.7c0.1,3.9,0,7.7,0,11.6
			c0,1.4-0.4,2-1.9,1.9c-2.3-0.1-4.5-0.1-6.8,0c-1.4,0-2-0.5-1.8-1.8c0-0.1,0-0.1,0-0.2C127.3,66.5,127.3,59,127.3,51.4z
			 M137.8,43.8c0,2.3,0,4.6,0,7c0,1,0.3,1.5,1.4,1.5c2.2,0,4.4,0.1,6.6-0.1c5.3-0.4,8-3,8.2-8c0.2-4.8-2.2-7.7-6.8-8.5
			c-2.7-0.4-5.5-0.1-8.2-0.2c-1.1,0-1.2,0.7-1.2,1.5C137.8,39.3,137.8,41.5,137.8,43.8z"/>
		<path class="st0" d="M180.3,44.1c2.4-3.9,5.9-5.9,10.3-6.2c7.6-0.6,13,3.3,14.1,10.9c0.5,3.3,0.3,6.6,0.3,10c0,5.1,0,10.1,0,15.2
			c0,2-0.2,2.1-2.2,2.1c-2.1,0-4.1-0.1-6.2,0c-1.4,0-1.9-0.4-1.8-1.8c0.1-6,0-11.9,0-17.9c0-1.2-0.1-2.4-0.2-3.6
			c-0.5-3.9-2.6-5.9-6.3-6.1c-3.8-0.2-6.8,2-7.6,5.6c-0.2,1.2-0.4,2.4-0.4,3.6c0,6.1,0,12.2,0,18.2c0,1.5-0.5,2.1-2,2
			c-1.9-0.1-3.8,0-5.7,0c-2.5,0-2.5,0-2.5-2.6c0-7.7,0-15.4,0-23.1c0-8,0-16,0-23.9c0-2.2,0.1-2.3,2.4-2.3c2,0,3.9,0.1,5.9,0
			c1.4-0.1,2,0.5,1.9,2c-0.1,5.5,0,11.1,0,16.6C180.3,43.1,180.3,43.6,180.3,44.1z"/>
		<path class="st0" d="M43.9,78.7c-0.2-1.6,0.6-2.8,1.7-3.9c4.6-4.5,8.9-9.1,13.7-13.4c2.4-2.1,5.6-2.2,7.9,0
			c8,7.8,15.9,15.6,23.8,23.4c2.1,2.1,2.2,5.5,0.1,7.6c-4.5,4.6-9,9.1-13.6,13.5c-2.6,2.4-6.6,2.3-8.8,0.1c-2.4-2.5-2.3-6.2,0.4-9
			c1.4-1.4,2.9-2.8,4.3-4.2c1.1-1.1,2.2-2.2,3.4-3.3c0.8-0.8,0.8-1.5,0-2.3c-4.1-3.9-8.1-7.9-12.1-11.8c-0.9-0.9-1.7-0.7-2.6,0.2
			c-2.6,2.6-5.1,5.2-7.8,7.7c-3.2,2.9-7.8,2.1-9.8-1.7C44,80.7,43.9,79.8,43.9,78.7z"/>
		<path class="st0" d="M472.9,66.1c0.8-2.9,1.6-5.8,2.4-8.6c1.6-5.8,3.2-11.6,4.8-17.4c0.3-1.2,0.9-1.6,2.1-1.6c2.4,0.1,4.8,0,7.1,0
			c1.8,0,2,0.1,1.4,1.9c-2.7,8.2-5.5,16.3-8.3,24.5c-1.5,4.4-2.9,8.8-4.5,13.2c-1.4,3.7-3.2,7.1-6.8,9.2c-3.9,2.3-8.2,2.2-12.5,2
			c-0.9,0-1.2-0.6-1.1-1.4c0-1.8,0-3.7,0-5.5c0-1,0.5-1.3,1.4-1.3c1.2,0,2.3,0,3.5-0.3c3.2-0.7,4.8-3.3,3.7-6.4
			c-3.8-10.8-7.6-21.6-11.3-32.5c-1.3-3.7-1.4-3.4,2.3-3.4c2,0,3.9,0.1,5.9,0c1.4-0.1,2.1,0.4,2.4,1.8c2.1,7.9,4.3,15.7,6.5,23.5
			c0.2,0.8,0.4,1.5,0.7,2.2C472.6,66.1,472.7,66.1,472.9,66.1z"/>
		<path class="st0" d="M233.8,71.6c-2,2.7-4.6,4.4-7.9,4.9c-4.6,0.7-8.9,0.2-12.3-3.4c-5.3-5.4-3.5-14.6,3.4-17.6
			c2.8-1.2,5.8-1.7,8.8-1.9c2.3-0.2,4.5-0.3,6.8-0.3c1.1,0,1.5-0.5,1.5-1.5c0-3.4-1.3-5.2-4.7-5.6c-3-0.4-5.9-0.1-7.8,2.7
			c-0.3,0.5-0.8,0.6-1.4,0.6c-2.3,0-4.5,0-6.8,0c-1.2,0-1.5-0.6-1.2-1.7c1.1-4.3,3.9-7,7.9-8.4c5.7-2,11.4-2.2,17,0.2
			c4.4,1.9,6.8,5.4,6.9,10.2c0.1,8.2,0,16.4,0.1,24.6c0,1.4-0.5,2-2,1.9c-2.1-0.1-4.2,0-6.3,0c-1.1,0-1.7-0.4-1.6-1.6
			c0-0.9,0-1.8,0-2.7C234,71.7,233.9,71.7,233.8,71.6z M230.9,59.9c-2.2,0.4-5,0-7.6,1c-1.6,0.6-2.5,1.8-2.6,3.5
			c-0.1,1.7,0.7,2.8,2.1,3.6c4.3,2.5,10.3-0.3,11.1-5.2C234.4,60,234.3,59.9,230.9,59.9z"/>
		<path class="st0" d="M404.9,71.6c-4.5,5.3-10,6.2-16.2,4.2c-4.2-1.4-6.9-5.3-7-10c-0.1-4.5,1.7-7.9,5.9-10c3-1.5,6.1-1.9,9.3-2.2
			c2.2-0.2,4.4-0.3,6.6-0.3c1.2,0,1.5-0.5,1.5-1.6c0-3.4-1.3-5.2-4.8-5.5c-2.9-0.3-5.9-0.1-7.7,2.8c-0.3,0.5-0.8,0.5-1.3,0.5
			c-2.3,0-4.5,0-6.8,0c-1.3,0-1.5-0.7-1.2-1.8c0.8-3.5,3-6.1,6.1-7.6c6.2-3,12.7-3.2,19-0.4c4.2,1.9,6.5,5.4,6.5,10
			c0,8.1,0,16.3,0,24.4c0,1.5-0.4,2.1-2,2c-2.1-0.1-4.1-0.1-6.2,0c-1.3,0-1.8-0.5-1.8-1.8C405.2,73.5,405.3,72.6,404.9,71.6z
			 M402.1,59.9c-2.2,0.4-5,0-7.6,1c-1.5,0.6-2.5,1.5-2.6,3.2c-0.1,1.7,0.4,3,1.9,3.9c4.4,2.6,10.6-0.3,11.3-5.3
			C405.4,60.1,405.2,59.9,402.1,59.9z"/>
		<path class="st0" d="M446.9,49.4c-0.6,0-1.3,0-1.9,0c-1.5,0.1-2.6-0.2-3.3-1.7c-0.7-1.5-2.3-1.9-3.9-2.2c-2.4-0.4-4.8-0.2-6.7,1.6
			c-1.3,1.3-1.1,3,0.4,4.1c1.2,0.8,2.5,1.1,3.9,1.4c3.3,0.7,6.7,1.2,9.9,2.3c4,1.3,7,3.6,7.5,8.1c0.5,4.5-1.3,8.2-5.1,10.7
			c-6.5,4.4-18.1,4.1-24-0.5c-2.2-1.7-3.4-4-4-6.7c-0.2-1,0.1-1.6,1.2-1.6c2.2,0,4.4,0,6.7,0.1c1.2,0,2.1,0.4,2.7,1.6
			c0.3,0.7,1,1.2,1.8,1.5c2.7,1.2,5.6,1.3,8.3,0.2c1.3-0.5,2.4-1.5,2.3-3.1c0-1.5-1.2-2.2-2.4-2.6c-2.8-1-5.8-1.4-8.8-2.1
			c-1.8-0.4-3.6-1-5.2-1.8c-7.5-3.6-7.3-13.4-1.6-17.6c3.9-2.9,8.5-3.6,13.2-3.4c3.6,0.2,7.1,0.9,10.1,3.3c2.2,1.8,3.4,4.1,3.8,6.9
			c0.2,1-0.2,1.4-1.2,1.4C449.3,49.4,448.1,49.4,446.9,49.4C446.9,49.4,446.9,49.4,446.9,49.4z"/>
		<path class="st0" d="M261.8,43.7c2.9-4.7,6.9-6.6,12-5.8c1.2,0.2,1.8,0.6,1.8,1.9c-0.1,2.1,0,4.1,0,6.2c0,1.1-0.4,1.5-1.5,1.3
			c-1-0.2-2-0.1-3-0.2c-5.8-0.3-9.1,3.1-9.1,9.1c0,5.9-0.1,11.8,0,17.8c0,1.6-0.5,2.2-2.1,2.1c-2.1-0.1-4.2-0.1-6.3,0
			c-1.3,0-1.8-0.4-1.8-1.7c0-11.4,0-22.7,0-34.1c0-1.2,0.4-1.8,1.6-1.7c2.3,0.1,4.7,0,7,0c1.1,0,1.5,0.5,1.5,1.5
			C261.8,41.3,261.8,42.5,261.8,43.7z"/>
	</g>
</g>
</svg>
