<?xml version="1.0" encoding="utf-8"?>
<!-- Generator: Adobe Illustrator 25.2.3, SVG Export Plug-In . SVG Version: 6.00 Build 0)  -->
<svg version="1.1" id="Layer_1" xmlns="http://www.w3.org/2000/svg" xmlns:xlink="http://www.w3.org/1999/xlink" x="0px" y="0px"
	 viewBox="0 0 50 50" style="enable-background:new 0 0 50 50;" xml:space="preserve">
<style type="text/css">
	.st0{fill:#2C2C2C;}
</style>
<g>
	<path class="st0" d="M18.54,48.9c-2.84,0.14-4.87-1.29-6.54-3.33c-3.38-4.11-6.05-8.68-8.62-13.32c-0.7-1.27-1.34-2.57-2.05-3.83
		c-1.31-2.32-1.12-3.52,1.14-4.87c1.91-1.15,4.01-1.85,6.32-1.75c1.54,0.07,2.46,0.81,3.15,2.16c2.51,4.92,5.19,9.75,8.32,14.31
		c0.62,0.9,0.92,0.88,1.46-0.04c2.64-4.54,5.14-9.16,7.45-13.88c3.19-6.5,6.29-13.05,9.44-19.57c0.96-1.98,2.86-2.69,4.74-3.35
		c1.48-0.51,3.06-0.34,4.58-0.2c1.4,0.13,1.89,0.99,1.3,2.31c-1.68,3.76-3.4,7.5-5.17,11.23c-2.77,5.85-5.69,11.62-8.74,17.33
		c-2.3,4.32-4.61,8.64-7.8,12.39C25.19,47.24,22.14,48.68,18.54,48.9z"/>
</g>
</svg>
