<?xml version="1.0" encoding="utf-8"?>
<!-- Generator: Adobe Illustrator 23.0.1, SVG Export Plug-In . SVG Version: 6.00 Build 0)  -->
<svg version="1.1" id="Layer_1" xmlns="http://www.w3.org/2000/svg" xmlns:xlink="http://www.w3.org/1999/xlink" x="0px" y="0px"
	 viewBox="0 0 500 500" style="enable-background:new 0 0 500 500;" xml:space="preserve">
<style type="text/css">
	.st0{fill:url(#SVGID_1_);}
	.st1{fill:#FFFFFF;}
</style>
<g>
	<linearGradient id="SVGID_1_" gradientUnits="userSpaceOnUse" x1="3.9759" y1="250" x2="496.0241" y2="250">
		<stop  offset="0" style="stop-color:#FD267D"/>
		<stop  offset="1" style="stop-color:#FF7854"/>
	</linearGradient>
	<circle class="st0" cx="250" cy="250" r="246"/>
	<path class="st1" d="M370.6,188.3c-7.2,3.2-15.1,5.2-22.8,6.5c3.7-0.6,9-7.3,11.2-9.9c3.3-4.1,6-8.8,7.6-13.8
		c0.2-0.4,0.3-0.9,0-1.2c-0.5-0.2-0.8-0.1-1.2,0.1c-8.6,4.6-17.5,8-27,10.3c-0.8,0.2-1.4,0-1.9-0.5c-0.8-0.9-1.5-1.7-2.4-2.4
		c-4-3.4-8.3-6.1-13.1-8c-6.3-2.6-13.3-3.7-20.1-3.2c-6.6,0.4-13.2,2.3-19,5.4c-5.9,3.1-11.2,7.4-15.4,12.5
		c-4.3,5.4-7.5,11.7-9.2,18.4c-1.6,6.5-1.5,12.9-0.5,19.4c0.1,1.1,0,1.2-0.9,1.1c-37.1-5.5-67.9-18.8-92.8-47.2
		c-1.1-1.2-1.7-1.2-2.6,0.1c-10.9,16.4-5.6,42.7,8,55.6c1.8,1.7,3.7,3.4,5.7,5c-0.7,0.2-9.8-0.8-17.9-5c-1.1-0.7-1.6-0.3-1.7,0.9
		c-0.1,1.8,0.1,3.4,0.3,5.3c2.1,16.6,13.6,32,29.3,37.9c1.9,0.8,3.9,1.5,5.9,1.8c-3.6,0.8-7.3,1.3-17.6,0.5
		c-1.3-0.2-1.8,0.4-1.3,1.6c7.7,21.1,24.4,27.3,36.9,30.9c1.7,0.3,3.3,0.3,5,0.7c-0.1,0.2-0.2,0.2-0.3,0.3
		c-4.1,6.3-18.5,11-25.2,13.4c-12.2,4.3-25.4,6.2-38.3,4.9c-2.1-0.3-2.5-0.3-3,0c-0.6,0.3-0.1,0.8,0.6,1.4c2.6,1.7,5.3,3.3,8,4.7
		c8.2,4.3,16.7,7.8,25.6,10.2c46,12.7,97.8,3.4,132.3-30.9c27.1-26.9,36.6-64.1,36.6-101.3c0-1.5,1.7-2.3,2.7-3
		c7.1-5.3,12.7-11.6,18-18.7c1.2-1.6,1.2-3,1.2-3.6c0-0.1,0-0.2,0-0.2C371.5,187.7,371.5,187.8,370.6,188.3z"/>
</g>
</svg>
