<?xml version="1.0" encoding="utf-8"?>
<!-- Generator: Adobe Illustrator 23.0.1, SVG Export Plug-In . SVG Version: 6.00 Build 0)  -->
<svg version="1.1" id="Layer_1" xmlns="http://www.w3.org/2000/svg" xmlns:xlink="http://www.w3.org/1999/xlink" x="0px" y="0px"
	 viewBox="0 0 500 500" style="enable-background:new 0 0 500 500;" xml:space="preserve">
<style type="text/css">
	.st0{fill:url(#SVGID_1_);}
	.st1{fill:#FFFFFF;}
	.st2{fill-rule:evenodd;clip-rule:evenodd;fill:#FFFFFF;}
</style>
<g>
	<linearGradient id="SVGID_1_" gradientUnits="userSpaceOnUse" x1="3.7407" y1="250" x2="496.2592" y2="250">
		<stop  offset="0" style="stop-color:#FD267D"/>
		<stop  offset="1" style="stop-color:#FF7854"/>
	</linearGradient>
	<circle class="st0" cx="250" cy="250" r="246.3"/>
	<g>
		<path class="st1" d="M158.6,344.2l13.3-49.6c-7.5-13.6-11.5-28.8-11.5-44.3c0-50.5,41.1-91.7,91.7-91.7
			c50.5,0,91.7,41.1,91.7,91.7c0,50.5-41.1,91.7-91.7,91.7c-15.2,0-30.2-3.8-43.6-11.1L158.6,344.2z M210.9,312.2l3.1,1.9
			c11.5,6.9,24.7,10.5,38,10.5c41,0,74.3-33.3,74.3-74.3c0-41-33.4-74.3-74.3-74.3c-41,0-74.3,33.3-74.3,74.3
			c0,13.5,3.8,26.9,10.9,38.5l1.9,3.2l-7.4,27.7L210.9,312.2z"/>
		<path class="st2" d="M286.1,263c-3.8-2.3-8.7-4.8-13.1-3c-3.4,1.4-5.6,6.7-7.8,9.5c-1.1,1.4-2.5,1.6-4.2,0.9
			c-12.8-5.1-22.6-13.6-29.7-25.4c-1.2-1.8-1-3.3,0.5-5c2.1-2.5,4.8-5.4,5.4-8.8c0.6-3.4-1-7.3-2.4-10.4c-1.8-3.9-3.8-9.3-7.6-11.5
			c-3.5-2-8.2-0.9-11.4,1.7c-5.5,4.4-8.1,11.4-8,18.3c0,2,0.3,3.9,0.7,5.8c1.1,4.6,3.2,8.8,5.6,12.8c1.8,3,3.7,6,5.8,8.8
			c6.8,9.3,15.4,17.4,25.2,23.4c4.9,3,10.2,5.7,15.7,7.5c6.2,2,11.7,4.2,18.3,2.9c7-1.3,13.8-5.6,16.6-12.4c0.8-2,1.2-4.2,0.8-6.3
			C295.5,267.7,289.6,265.1,286.1,263z"/>
	</g>
</g>
</svg>
